<?xml version="1.0" encoding="utf-8"?>
<!-- Generator: Adobe Illustrator 15.0.0, SVG Export Plug-In . SVG Version: 6.00 Build 0)  -->
<svg version="1.2" baseProfile="tiny" xmlns="http://www.w3.org/2000/svg" xmlns:xlink="http://www.w3.org/1999/xlink" x="0px"
	 y="0px" width="1080px" height="318.424px" viewBox="0 0 1080 318.424" overflow="inherit" xml:space="preserve">
<g id="Layer_3">
	<path fill-rule="evenodd" fill="#F7F7F7" d="M343.569,183.024c0.013-0.78,0.029-1.559,0.029-2.343
		c0-72.145-58.58-130.63-130.842-130.63c-72.262,0-130.843,58.486-130.843,130.63c0,0.784,0.017,1.563,0.031,2.343H0V0h1080v183.024
		H343.569z M213.258,67.344c63.351,0,114.706,51.272,114.706,114.521c0,63.247-51.355,114.52-114.706,114.52
		S98.552,245.112,98.552,181.865C98.552,118.616,149.907,67.344,213.258,67.344z"/>
</g>
<g id="Layer_4">
	<path fill-rule="evenodd" fill="#DFDEDE" d="M1031.085,183.109c-0.275-0.159-0.59-0.257-0.931-0.257
		c-0.341,0-0.657,0.098-0.932,0.257h-63.005c-0.275-0.159-0.591-0.257-0.932-0.257s-0.656,0.098-0.933,0.257h-4.683v-29.897h75.774
		v29.897H1031.085z M965.285,156.275c-1.032,0-1.87,0.836-1.87,1.867c0,1.029,0.837,1.865,1.87,1.865s1.868-0.836,1.868-1.865
		C967.153,157.111,966.317,156.275,965.285,156.275z M965.285,162.919c-1.032,0-1.87,0.836-1.87,1.867
		c0,1.029,0.837,1.865,1.87,1.865s1.868-0.836,1.868-1.865C967.153,163.755,966.317,162.919,965.285,162.919z M965.285,169.564
		c-1.032,0-1.87,0.835-1.87,1.866c0,1.03,0.837,1.865,1.87,1.865s1.868-0.835,1.868-1.865
		C967.153,170.399,966.317,169.564,965.285,169.564z M965.285,176.208c-1.032,0-1.87,0.835-1.87,1.866
		c0,1.03,0.837,1.865,1.87,1.865s1.868-0.834,1.868-1.865C967.153,177.043,966.317,176.208,965.285,176.208z M1030.154,156.275
		c-1.032,0-1.869,0.836-1.869,1.867c0,1.029,0.837,1.865,1.869,1.865c1.032,0,1.868-0.836,1.868-1.865
		C1032.022,157.111,1031.186,156.275,1030.154,156.275z M1030.154,162.919c-1.032,0-1.869,0.836-1.869,1.867
		c0,1.029,0.837,1.865,1.869,1.865c1.032,0,1.868-0.836,1.868-1.865C1032.022,163.755,1031.186,162.919,1030.154,162.919z
		 M1030.154,169.564c-1.032,0-1.869,0.835-1.869,1.866c0,1.03,0.837,1.865,1.869,1.865c1.032,0,1.868-0.835,1.868-1.865
		C1032.022,170.399,1031.186,169.564,1030.154,169.564z M1030.154,176.208c-1.032,0-1.869,0.835-1.869,1.866
		c0,1.03,0.837,1.865,1.869,1.865c1.032,0,1.868-0.834,1.868-1.865C1032.022,177.043,1031.186,176.208,1030.154,176.208z
		 M984.191,146.685c0-1.239-1.006-2.243-2.249-2.243c-1.241,0-2.247,1.004-2.247,2.243c0,0.764,0.406,1.406,0.988,1.81h-25.327
		v34.615h-58.204v-58.338h91.153v23.723h-5.104C983.785,148.09,984.191,147.448,984.191,146.685z M903.909,128.456
		c-1.242,0-2.249,1.005-2.249,2.246c0,1.238,1.007,2.244,2.249,2.244c1.241,0,2.248-1.005,2.248-2.244
		C906.157,129.461,905.15,128.456,903.909,128.456z M903.909,136.449c-1.242,0-2.249,1.005-2.249,2.245
		c0,1.239,1.007,2.244,2.249,2.244c1.241,0,2.248-1.004,2.248-2.244C906.157,137.454,905.15,136.449,903.909,136.449z
		 M903.909,144.442c-1.242,0-2.249,1.004-2.249,2.243c0,1.24,1.007,2.246,2.249,2.246c1.241,0,2.248-1.005,2.248-2.246
		C906.157,145.446,905.15,144.442,903.909,144.442z M903.909,152.433c-1.242,0-2.249,1.005-2.249,2.245
		c0,1.24,1.007,2.245,2.249,2.245c1.241,0,2.248-1.005,2.248-2.245C906.157,153.438,905.15,152.433,903.909,152.433z
		 M903.909,160.426c-1.242,0-2.249,1.005-2.249,2.245s1.007,2.244,2.249,2.244c1.241,0,2.248-1.004,2.248-2.244
		S905.15,160.426,903.909,160.426z M903.909,168.419c-1.242,0-2.249,1.005-2.249,2.244c0,1.239,1.007,2.245,2.249,2.245
		c1.241,0,2.248-1.005,2.248-2.245C906.157,169.424,905.15,168.419,903.909,168.419z M903.909,176.411
		c-1.242,0-2.249,1.005-2.249,2.244c0,1.239,1.007,2.245,2.249,2.245c1.241,0,2.248-1.005,2.248-2.245
		C906.157,177.417,905.15,176.411,903.909,176.411z M981.942,128.456c-1.241,0-2.247,1.005-2.247,2.246
		c0,1.238,1.006,2.244,2.247,2.244c1.243,0,2.249-1.005,2.249-2.244C984.191,129.461,983.185,128.456,981.942,128.456z
		 M981.942,136.449c-1.241,0-2.247,1.005-2.247,2.245c0,1.239,1.006,2.244,2.247,2.244c1.243,0,2.249-1.004,2.249-2.244
		C984.191,137.454,983.185,136.449,981.942,136.449z M880.354,113.463h10.015v69.646h-10.015V113.463z M873.203,113.463h2.79v69.646
		h-2.79V113.463z M862.581,113.463h5.579v69.646h-5.579V113.463z M855.554,113.463h2.381v69.646h-2.381V113.463z M848.677,113.463
		h2.381v69.646h-2.381V113.463z M835.612,113.463h7.25v69.646h-7.25V113.463z M821.165,113.463h10.015v69.646h-10.015V113.463z
		 M810.315,113.463h5.574v69.646h-5.574V113.463z M795.032,113.463h10.011v69.646h-10.011V113.463z M781.298,181.246
		c-1.134,0-2.08,0.799-2.307,1.863h-77.326c-0.228-1.064-1.173-1.863-2.307-1.863c-1.133,0-2.078,0.799-2.305,1.863h-4.377v-47.694
		h95.715v47.694h-4.787C783.378,182.045,782.432,181.246,781.298,181.246z M699.358,139.284c-1.304,0-2.359,1.055-2.359,2.357
		c0,1.302,1.055,2.357,2.359,2.357c1.305,0,2.361-1.055,2.361-2.357C701.719,140.338,700.663,139.284,699.358,139.284z
		 M699.358,147.676c-1.304,0-2.359,1.055-2.359,2.357c0,1.301,1.055,2.356,2.359,2.356c1.305,0,2.361-1.055,2.361-2.356
		C701.719,148.731,700.663,147.676,699.358,147.676z M699.358,156.069c-1.304,0-2.359,1.055-2.359,2.356
		c0,1.302,1.055,2.357,2.359,2.357c1.305,0,2.361-1.055,2.361-2.357C701.719,157.124,700.663,156.069,699.358,156.069z
		 M699.358,164.462c-1.304,0-2.359,1.055-2.359,2.356c0,1.302,1.055,2.357,2.359,2.357c1.305,0,2.361-1.055,2.361-2.357
		C701.719,165.517,700.663,164.462,699.358,164.462z M699.358,172.854c-1.304,0-2.359,1.055-2.359,2.356
		c0,1.302,1.055,2.357,2.359,2.357c1.305,0,2.361-1.055,2.361-2.357C701.719,173.909,700.663,172.854,699.358,172.854z
		 M781.298,139.284c-1.304,0-2.36,1.055-2.36,2.357c0,1.302,1.056,2.357,2.36,2.357c1.303,0,2.361-1.055,2.361-2.357
		C783.659,140.338,782.602,139.284,781.298,139.284z M781.298,147.676c-1.304,0-2.36,1.055-2.36,2.357
		c0,1.301,1.056,2.356,2.36,2.356c1.303,0,2.361-1.055,2.361-2.356C783.659,148.731,782.602,147.676,781.298,147.676z
		 M781.298,156.069c-1.304,0-2.36,1.055-2.36,2.356c0,1.302,1.056,2.357,2.36,2.357c1.303,0,2.361-1.055,2.361-2.357
		C783.659,157.124,782.602,156.069,781.298,156.069z M781.298,164.462c-1.304,0-2.36,1.055-2.36,2.356
		c0,1.302,1.056,2.357,2.36,2.357c1.303,0,2.361-1.055,2.361-2.357C783.659,165.517,782.602,164.462,781.298,164.462z
		 M781.298,172.854c-1.304,0-2.36,1.055-2.36,2.356c0,1.302,1.056,2.357,2.36,2.357c1.303,0,2.361-1.055,2.361-2.357
		C783.659,173.909,782.602,172.854,781.298,172.854z M683.223,128.23h4.162v54.879h-4.162V128.23z M676.841,128.23h2.349v54.879
		h-2.349V128.23z M668.937,128.23h4.694v54.879h-4.694V128.23z M658.068,128.23h6.431v54.879h-6.431V128.23z M653.215,128.23h1.984
		v54.879h-1.984V128.23z M649.349,128.23h1.983v54.879h-1.983V128.23z M645.076,128.23h1.984v54.879h-1.984V128.23z M634.081,128.23
		h8.429v54.879h-8.429V128.23z M624.949,128.23h4.691v54.879h-4.691V128.23z M614.063,128.23h6.449v54.879h-6.449V128.23z
		 M599.443,183.065c-0.151,0-0.299,0.019-0.444,0.044h-89.397c-0.146-0.025-0.293-0.044-0.445-0.044
		c-0.152,0-0.299,0.019-0.445,0.044h-7.372v-41.298h105.467v41.298h-6.919C599.744,183.084,599.596,183.065,599.443,183.065z
		 M509.157,146.075c-1.436,0-2.6,1.162-2.6,2.597c0,1.434,1.165,2.597,2.6,2.597c1.437,0,2.601-1.163,2.601-2.597
		C511.758,147.237,510.594,146.075,509.157,146.075z M509.157,155.322c-1.436,0-2.6,1.163-2.6,2.598c0,1.434,1.165,2.597,2.6,2.597
		c1.437,0,2.601-1.164,2.601-2.597C511.758,156.485,510.594,155.322,509.157,155.322z M509.157,164.569
		c-1.436,0-2.6,1.164-2.6,2.598c0,1.434,1.165,2.596,2.6,2.596c1.437,0,2.601-1.163,2.601-2.596
		C511.758,165.733,510.594,164.569,509.157,164.569z M509.157,173.817c-1.436,0-2.6,1.164-2.6,2.598c0,1.435,1.165,2.596,2.6,2.596
		c1.437,0,2.601-1.161,2.601-2.596C511.758,174.98,510.594,173.817,509.157,173.817z M599.443,146.075
		c-1.437,0-2.601,1.162-2.601,2.597c0,1.434,1.164,2.597,2.601,2.597c1.438,0,2.602-1.163,2.602-2.597
		C602.045,147.237,600.881,146.075,599.443,146.075z M599.443,155.322c-1.437,0-2.601,1.163-2.601,2.598
		c0,1.434,1.164,2.597,2.601,2.597c1.438,0,2.602-1.164,2.602-2.597C602.045,156.485,600.881,155.322,599.443,155.322z
		 M599.443,164.569c-1.437,0-2.601,1.164-2.601,2.598c0,1.434,1.164,2.596,2.601,2.596c1.438,0,2.602-1.163,2.602-2.596
		C602.045,165.733,600.881,164.569,599.443,164.569z M602.045,176.415c0-1.434-1.164-2.598-2.602-2.598
		c-1.437,0-2.601,1.164-2.601,2.598c0,1.435,1.164,2.596,2.601,2.596C600.881,179.01,602.045,177.849,602.045,176.415z
		 M535.472,132.727c0-1.725-1.401-3.123-3.129-3.123c-1.727,0-3.127,1.398-3.127,3.123c0,1.037,0.511,1.95,1.292,2.519h-35.165
		v47.863h-81.012v-80.882h126.871v33.019h-7.021C534.96,134.677,535.472,133.764,535.472,132.727z M423.734,107.355
		c-1.729,0-3.129,1.399-3.129,3.123c0,1.726,1.4,3.124,3.129,3.124s3.128-1.398,3.128-3.124
		C426.862,108.754,425.462,107.355,423.734,107.355z M423.734,118.479c-1.729,0-3.129,1.399-3.129,3.125s1.4,3.124,3.129,3.124
		s3.128-1.398,3.128-3.124S425.462,118.479,423.734,118.479z M423.734,129.604c-1.729,0-3.129,1.398-3.129,3.123
		s1.4,3.124,3.129,3.124s3.128-1.399,3.128-3.124S425.462,129.604,423.734,129.604z M423.734,140.728
		c-1.729,0-3.129,1.397-3.129,3.124c0,1.725,1.4,3.124,3.129,3.124s3.128-1.398,3.128-3.124
		C426.862,142.125,425.462,140.728,423.734,140.728z M423.734,151.852c-1.729,0-3.129,1.398-3.129,3.125
		c0,1.725,1.4,3.124,3.129,3.124s3.128-1.399,3.128-3.124C426.862,153.25,425.462,151.852,423.734,151.852z M423.734,162.976
		c-1.729,0-3.129,1.399-3.129,3.123c0,1.725,1.4,3.124,3.129,3.124s3.128-1.399,3.128-3.124
		C426.862,164.375,425.462,162.976,423.734,162.976z M423.734,174.1c-1.729,0-3.129,1.399-3.129,3.125s1.4,3.124,3.129,3.124
		s3.128-1.398,3.128-3.124S425.462,174.1,423.734,174.1z M532.343,107.355c-1.727,0-3.127,1.399-3.127,3.123
		c0,1.726,1.4,3.124,3.127,3.124c1.729,0,3.129-1.398,3.129-3.124C535.472,108.754,534.071,107.355,532.343,107.355z
		 M532.343,118.479c-1.727,0-3.127,1.399-3.127,3.125s1.4,3.124,3.127,3.124c1.729,0,3.129-1.398,3.129-3.124
		S534.071,118.479,532.343,118.479z M392.819,86.418h13.319v96.691h-13.319V86.418z M383.307,86.418h3.712v96.691h-3.712V86.418z
		 M369.18,86.418h7.419v96.691h-7.419V86.418z M359.834,86.418H363v96.691h-3.166V86.418z M350.688,86.418h3.167v96.691h-3.167
		V86.418z M213.204,316.768c-75.164,0-136.095-60.833-136.095-135.875c0-4.902,0.266-9.742,0.774-14.511v-60.947h8.703v25.547
		c2.349-5.936,5.109-11.663,8.237-17.155v-8.392h5.192c24.411-36.428,65.992-60.417,113.189-60.417
		c40.013,0,75.992,17.242,100.894,44.689v-3.29h13.319v20.572c2.103,3.231,4.068,6.556,5.895,9.97V86.418h9.642v53.378
		c4.117,12.966,6.343,26.771,6.343,41.096C349.298,255.934,288.366,316.768,213.204,316.768z M213.082,51.225
		c-71.846,0-130.087,58.149-130.087,129.879s58.241,129.878,130.087,129.878c71.846,0,130.089-58.148,130.089-129.878
		S284.928,51.225,213.082,51.225z M213.589,296.114c-34.919,0-66.155-15.705-87.083-40.417v-70.573
		c0-8.068,6.541-14.609,14.609-14.609h147.455c8.068,0,14.609,6.541,14.609,14.609v67.498
		C282.285,279.098,249.934,296.114,213.589,296.114z M135.968,166.708c-4.052,0.951-6.648,2.899-6.648,2.899l5.057-17.472h70.163
		l1.713,13.913c0,0-36.157,0.05-56.947,0.074C147.687,166.125,140.498,165.645,135.968,166.708z M54.023,105.435h15.629v77.674
		H54.023V105.435z"/>
	<g>
		<path fill="#939393" d="M242.24,208c-2.033,2.035-3.217,4.688-3.333,7.474c-0.125,2.861,0.892,5.504,2.844,7.458l35.414,35.433
			c0.88,0.879,2.303,0.879,3.182,0c0.878-0.878,0.878-2.304,0-3.183l-35.414-35.432c-1.052-1.054-1.594-2.501-1.531-4.088
			c0.069-1.653,0.785-3.244,2.02-4.478c2.494-2.498,6.336-2.716,8.562-0.489l50.816,50.844c1.805,1.806,2.73,4.282,2.625,6.975
			c-0.032,0.746-0.154,1.479-0.337,2.198c1.835-1.935,3.377-3.689,4.607-5.16c-0.485-2.736-1.743-5.226-3.713-7.195l-50.816-50.844
			C253.184,203.531,246.49,203.75,242.24,208z"/>
		<path fill="#939393" d="M298.168,279.119c-3.1,0.598-6.293-0.163-8.534-2.407l-62.503-62.537
			c-2.557-2.556-3.879-6.059-3.718-9.861c0.16-3.873,1.829-7.584,4.695-10.454c2.867-2.869,6.578-4.538,10.448-4.699
			c3.801-0.157,7.301,1.165,9.857,3.721l47.099,47.125c0.879,0.878,2.303,0.878,3.181,0s0.878-2.304,0-3.182L251.595,189.7
			c-3.456-3.458-8.153-5.245-13.224-5.035c-5.001,0.207-9.776,2.343-13.443,6.012c-3.666,3.67-5.802,8.446-6.009,13.45
			c-0.212,5.071,1.577,9.774,5.033,13.232l62.501,62.536c1.748,1.75,3.925,2.886,6.298,3.475
			C294.666,281.97,296.472,280.546,298.168,279.119z"/>
	</g>
</g>
<g id="Layer_2">
	<path fill-rule="evenodd" fill="#D59897" d="M158.296,215.926V188.32c0-3.045-2.469-5.513-5.514-5.513h-9.029
		c-3.045,0-5.513,2.468-5.513,5.513v27.606c0,3.045,2.468,5.514,5.513,5.513l9.029,0.001
		C155.827,221.44,158.296,218.971,158.296,215.926z"/>
</g>
<g id="Layer_1">
	<path fill-rule="evenodd" fill="#A7C9B5" d="M208.196,159.116h46.908l2.468,7.708h-48.224L208.196,159.116z"/>
</g>
</svg>
