<?xml version="1.0" encoding="utf-8"?>
<!-- Generator: Adobe Illustrator 15.0.0, SVG Export Plug-In . SVG Version: 6.00 Build 0)  -->
<svg version="1.1" id="Layer_1" xmlns="http://www.w3.org/2000/svg" xmlns:xlink="http://www.w3.org/1999/xlink" x="0px" y="0px"
	 width="8.5px" height="8.833px" viewBox="0 0 8.5 8.833" enable-background="new 0 0 8.5 8.833" xml:space="preserve">
<g>
	<path fill="#A91F23" d="M8.004,7.345H0.509c-0.229,0-0.415,0.188-0.415,0.416v0.554c0,0.229,0.188,0.416,0.415,0.416h7.492
		c0.229,0,0.415-0.188,0.415-0.416V7.761C8.42,7.53,8.233,7.345,8.004,7.345z"/>
	<path fill="#A91F23" d="M3.966,6.592c0.081,0.081,0.188,0.123,0.292,0.123c0.106,0,0.212-0.042,0.292-0.123L7.389,3.75
		c0.161-0.161,0.161-0.424,0-0.588L6.996,2.769c-0.161-0.161-0.424-0.161-0.588,0L4.949,4.23V0.499c0-0.229-0.188-0.416-0.415-0.416
		H3.981c-0.229,0-0.415,0.185-0.415,0.416v3.733L2.105,2.77c-0.161-0.161-0.425-0.161-0.588,0L1.124,3.163
		c-0.161,0.161-0.161,0.426,0,0.588L3.966,6.592z"/>
</g>
</svg>
