<?xml version="1.0" encoding="utf-8"?>
<!-- Generator: Adobe Illustrator 15.0.0, SVG Export Plug-In . SVG Version: 6.00 Build 0)  -->
<svg version="1.1" xmlns="http://www.w3.org/2000/svg" xmlns:xlink="http://www.w3.org/1999/xlink" x="0px" y="0px" width="540px"
	 height="162px" viewBox="0 0 540 162" enable-background="new 0 0 540 162" xml:space="preserve">
<g id="Layer_2">
	<path fill-rule="evenodd" clip-rule="evenodd" fill="none" d="M540.586,161.846H-0.023V91.878h40.815
		c-0.006-0.365-0.014-0.73-0.014-1.097c0-36.424,29.528-65.952,65.952-65.952c36.424,0,65.952,29.528,65.952,65.952
		c0,0.367-0.008,0.732-0.014,1.097h367.918V161.846z"/>
	<path fill-rule="evenodd" clip-rule="evenodd" fill="#F7F7F7" d="M171.972,91.771c0.006-0.391,0.015-0.782,0.015-1.174
		c0-36.166-29.318-65.484-65.484-65.484S41.019,54.432,41.019,90.597c0,0.393,0.008,0.783,0.015,1.174H0.023V0.023H540.54v91.748
		H171.972z M106.754,33.782c31.705,0,57.408,25.702,57.408,57.408s-25.703,57.408-57.408,57.408
		c-31.706,0-57.408-25.702-57.408-57.408S75.048,33.782,106.754,33.782z"/>
</g>
<g id="Layer_3">
	<path fill-rule="evenodd" clip-rule="evenodd" fill="#DFDEDE" d="M515.589,91.449c-0.138-0.08-0.295-0.129-0.466-0.129
		s-0.329,0.049-0.466,0.129h-31.533c-0.138-0.08-0.296-0.129-0.466-0.129c-0.171,0-0.329,0.049-0.467,0.129h-2.344V76.462h37.924
		v14.987H515.589z M482.658,77.998c-0.517,0-0.936,0.419-0.936,0.935c0,0.517,0.419,0.936,0.936,0.936
		c0.516,0,0.935-0.419,0.935-0.936C483.593,78.417,483.174,77.998,482.658,77.998z M482.658,81.328
		c-0.517,0-0.936,0.419-0.936,0.935c0,0.517,0.419,0.936,0.936,0.936c0.516,0,0.935-0.419,0.935-0.936
		C483.593,81.747,483.174,81.328,482.658,81.328z M482.658,84.659c-0.517,0-0.936,0.419-0.936,0.935
		c0,0.517,0.419,0.936,0.936,0.936c0.516,0,0.935-0.419,0.935-0.936C483.593,85.078,483.174,84.659,482.658,84.659z M482.658,87.989
		c-0.517,0-0.936,0.419-0.936,0.936c0,0.516,0.419,0.935,0.936,0.935c0.516,0,0.935-0.419,0.935-0.935
		C483.593,88.408,483.174,87.989,482.658,87.989z M515.123,77.998c-0.517,0-0.935,0.419-0.935,0.935
		c0,0.517,0.418,0.936,0.935,0.936s0.935-0.419,0.935-0.936C516.058,78.417,515.64,77.998,515.123,77.998z M515.123,81.328
		c-0.517,0-0.935,0.419-0.935,0.935c0,0.517,0.418,0.936,0.935,0.936s0.935-0.419,0.935-0.936
		C516.058,81.747,515.64,81.328,515.123,81.328z M515.123,84.659c-0.517,0-0.935,0.419-0.935,0.935c0,0.517,0.418,0.936,0.935,0.936
		s0.935-0.419,0.935-0.936C516.058,85.078,515.64,84.659,515.123,84.659z M515.123,87.989c-0.517,0-0.935,0.419-0.935,0.936
		c0,0.516,0.418,0.935,0.935,0.935s0.935-0.419,0.935-0.935C516.058,88.408,515.64,87.989,515.123,87.989z M492.12,73.19
		c0-0.621-0.504-1.125-1.125-1.125c-0.621,0-1.125,0.504-1.125,1.125c0,0.383,0.203,0.704,0.495,0.907h-12.675v17.352h-29.13V62.205
		h45.621v11.892h-2.555C491.917,73.894,492.12,73.573,492.12,73.19z M451.94,64.052c-0.622,0-1.125,0.504-1.125,1.125
		c0,0.621,0.503,1.125,1.125,1.125c0.621,0,1.125-0.504,1.125-1.125C453.065,64.556,452.562,64.052,451.94,64.052z M451.94,68.059
		c-0.622,0-1.125,0.503-1.125,1.125s0.503,1.125,1.125,1.125c0.621,0,1.125-0.503,1.125-1.125S452.562,68.059,451.94,68.059z
		 M451.94,72.065c-0.622,0-1.125,0.504-1.125,1.125c0,0.622,0.503,1.125,1.125,1.125c0.621,0,1.125-0.504,1.125-1.125
		C453.065,72.569,452.562,72.065,451.94,72.065z M451.94,76.072c-0.622,0-1.125,0.503-1.125,1.125c0,0.621,0.503,1.125,1.125,1.125
		c0.621,0,1.125-0.504,1.125-1.125C453.065,76.575,452.562,76.072,451.94,76.072z M451.94,80.078c-0.622,0-1.125,0.504-1.125,1.125
		c0,0.622,0.503,1.125,1.125,1.125c0.621,0,1.125-0.503,1.125-1.125C453.065,80.582,452.562,80.078,451.94,80.078z M451.94,84.084
		c-0.622,0-1.125,0.504-1.125,1.125c0,0.622,0.503,1.125,1.125,1.125c0.621,0,1.125-0.504,1.125-1.125
		C453.065,84.588,452.562,84.084,451.94,84.084z M451.94,88.091c-0.622,0-1.125,0.503-1.125,1.125c0,0.621,0.503,1.125,1.125,1.125
		c0.621,0,1.125-0.504,1.125-1.125C453.065,88.595,452.562,88.091,451.94,88.091z M490.995,64.052c-0.621,0-1.125,0.504-1.125,1.125
		c0,0.621,0.504,1.125,1.125,1.125c0.622,0,1.125-0.504,1.125-1.125C492.12,64.556,491.616,64.052,490.995,64.052z M490.995,68.059
		c-0.621,0-1.125,0.503-1.125,1.125s0.504,1.125,1.125,1.125c0.622,0,1.125-0.503,1.125-1.125S491.616,68.059,490.995,68.059z
		 M440.151,56.536h5.013v34.913h-5.013V56.536z M436.572,56.536h1.397v34.913h-1.397V56.536z M431.256,56.536h2.792v34.913h-2.792
		V56.536z M427.739,56.536h1.192v34.913h-1.192V56.536z M424.297,56.536h1.191v34.913h-1.191V56.536z M417.759,56.536h3.629v34.913
		h-3.629V56.536z M410.529,56.536h5.013v34.913h-5.013V56.536z M405.099,56.536h2.79v34.913h-2.79V56.536z M397.45,56.536h5.011
		v34.913h-5.011V56.536z M390.576,90.515c-0.567,0-1.041,0.4-1.154,0.934h-38.7c-0.114-0.534-0.587-0.934-1.155-0.934
		s-1.041,0.4-1.154,0.934h-2.19V67.541h47.903v23.909h-2.396C391.617,90.916,391.144,90.515,390.576,90.515z M349.567,69.48
		c-0.652,0-1.181,0.529-1.181,1.181c0,0.653,0.529,1.182,1.181,1.182s1.182-0.529,1.182-1.182
		C350.749,70.009,350.22,69.48,349.567,69.48z M349.567,73.687c-0.652,0-1.181,0.529-1.181,1.181c0,0.653,0.529,1.182,1.181,1.182
		s1.182-0.529,1.182-1.182C350.749,74.216,350.22,73.687,349.567,73.687z M349.567,77.894c-0.652,0-1.181,0.529-1.181,1.181
		c0,0.653,0.529,1.182,1.181,1.182s1.182-0.529,1.182-1.182C350.749,78.423,350.22,77.894,349.567,77.894z M349.567,82.101
		c-0.652,0-1.181,0.529-1.181,1.181c0,0.653,0.529,1.182,1.181,1.182s1.182-0.529,1.182-1.182
		C350.749,82.63,350.22,82.101,349.567,82.101z M349.567,86.308c-0.652,0-1.181,0.529-1.181,1.181c0,0.653,0.529,1.182,1.181,1.182
		s1.182-0.529,1.182-1.182C350.749,86.837,350.22,86.308,349.567,86.308z M390.576,69.48c-0.652,0-1.181,0.529-1.181,1.181
		c0,0.653,0.529,1.182,1.181,1.182c0.653,0,1.182-0.529,1.182-1.182C391.758,70.009,391.229,69.48,390.576,69.48z M390.576,73.687
		c-0.652,0-1.181,0.529-1.181,1.181c0,0.653,0.529,1.182,1.181,1.182c0.653,0,1.182-0.529,1.182-1.182
		C391.758,74.216,391.229,73.687,390.576,73.687z M390.576,77.894c-0.652,0-1.181,0.529-1.181,1.181
		c0,0.653,0.529,1.182,1.181,1.182c0.653,0,1.182-0.529,1.182-1.182C391.758,78.423,391.229,77.894,390.576,77.894z M390.576,82.101
		c-0.652,0-1.181,0.529-1.181,1.181c0,0.653,0.529,1.182,1.181,1.182c0.653,0,1.182-0.529,1.182-1.182
		C391.758,82.63,391.229,82.101,390.576,82.101z M390.576,86.308c-0.652,0-1.181,0.529-1.181,1.181c0,0.653,0.529,1.182,1.181,1.182
		c0.653,0,1.182-0.529,1.182-1.182C391.758,86.837,391.229,86.308,390.576,86.308z M341.491,63.939h2.083v27.51h-2.083V63.939z
		 M338.297,63.939h1.176v27.51h-1.176V63.939z M334.342,63.939h2.35v27.51h-2.35V63.939z M328.902,63.939h3.219v27.51h-3.219V63.939
		z M326.473,63.939h0.993v27.51h-0.993V63.939z M324.538,63.939h0.993v27.51h-0.993V63.939z M322.4,63.939h0.993v27.51H322.4V63.939
		z M316.897,63.939h4.219v27.51h-4.219V63.939z M312.327,63.939h2.348v27.51h-2.348V63.939z M306.878,63.939h3.228v27.51h-3.228
		V63.939z M299.562,91.426c-0.076,0-0.15,0.01-0.223,0.023h-44.741c-0.073-0.013-0.146-0.023-0.223-0.023s-0.15,0.01-0.223,0.023
		h-3.689V70.747h52.783v20.702h-3.462C299.712,91.437,299.638,91.426,299.562,91.426z M254.375,72.884
		c-0.719,0-1.302,0.583-1.302,1.301c0,0.719,0.583,1.302,1.302,1.302c0.719,0,1.302-0.583,1.302-1.302
		C255.677,73.467,255.095,72.884,254.375,72.884z M254.375,77.52c-0.719,0-1.302,0.583-1.302,1.302c0,0.719,0.583,1.302,1.302,1.302
		c0.719,0,1.302-0.583,1.302-1.302C255.677,78.103,255.095,77.52,254.375,77.52z M254.375,82.155c-0.719,0-1.302,0.583-1.302,1.302
		s0.583,1.302,1.302,1.302c0.719,0,1.302-0.583,1.302-1.302S255.095,82.155,254.375,82.155z M254.375,86.791
		c-0.719,0-1.302,0.583-1.302,1.302c0,0.719,0.583,1.302,1.302,1.302c0.719,0,1.302-0.583,1.302-1.302
		C255.677,87.374,255.095,86.791,254.375,86.791z M299.562,72.884c-0.719,0-1.302,0.583-1.302,1.301
		c0,0.719,0.583,1.302,1.302,1.302c0.719,0,1.302-0.583,1.302-1.302C300.864,73.467,300.281,72.884,299.562,72.884z M299.562,77.52
		c-0.719,0-1.302,0.583-1.302,1.302c0,0.719,0.583,1.302,1.302,1.302c0.719,0,1.302-0.583,1.302-1.302
		C300.864,78.103,300.281,77.52,299.562,77.52z M299.562,82.155c-0.719,0-1.302,0.583-1.302,1.302s0.583,1.302,1.302,1.302
		c0.719,0,1.302-0.583,1.302-1.302S300.281,82.155,299.562,82.155z M300.864,88.093c0-0.719-0.583-1.302-1.302-1.302
		c-0.719,0-1.302,0.583-1.302,1.302c0,0.719,0.583,1.302,1.302,1.302C300.281,89.395,300.864,88.812,300.864,88.093z
		 M267.545,66.193c0-0.865-0.701-1.566-1.565-1.566c-0.865,0-1.566,0.701-1.566,1.566c0,0.521,0.257,0.978,0.647,1.263h-17.6v23.994
		h-40.544V50.903h63.496v16.552h-3.514C267.289,67.171,267.545,66.713,267.545,66.193z M211.623,53.474
		c-0.865,0-1.566,0.701-1.566,1.566s0.701,1.566,1.566,1.566s1.566-0.701,1.566-1.566S212.487,53.474,211.623,53.474z
		 M211.623,59.051c-0.865,0-1.566,0.701-1.566,1.566s0.701,1.566,1.566,1.566s1.566-0.701,1.566-1.566
		S212.487,59.051,211.623,59.051z M211.623,64.627c-0.865,0-1.566,0.701-1.566,1.566s0.701,1.566,1.566,1.566
		s1.566-0.701,1.566-1.566S212.487,64.627,211.623,64.627z M211.623,70.204c-0.865,0-1.566,0.701-1.566,1.566
		s0.701,1.566,1.566,1.566s1.566-0.701,1.566-1.566S212.487,70.204,211.623,70.204z M211.623,75.78
		c-0.865,0-1.566,0.701-1.566,1.566s0.701,1.566,1.566,1.566s1.566-0.701,1.566-1.566S212.487,75.78,211.623,75.78z M211.623,81.356
		c-0.865,0-1.566,0.701-1.566,1.566s0.701,1.566,1.566,1.566s1.566-0.701,1.566-1.566S212.487,81.356,211.623,81.356z
		 M211.623,86.933c-0.865,0-1.566,0.701-1.566,1.566s0.701,1.566,1.566,1.566s1.566-0.701,1.566-1.566
		S212.487,86.933,211.623,86.933z M265.98,53.474c-0.865,0-1.566,0.701-1.566,1.566s0.701,1.566,1.566,1.566
		c0.865,0,1.565-0.701,1.565-1.566S266.845,53.474,265.98,53.474z M265.98,59.051c-0.865,0-1.566,0.701-1.566,1.566
		s0.701,1.566,1.566,1.566c0.865,0,1.565-0.701,1.565-1.566S266.845,59.051,265.98,59.051z M196.15,42.979h6.667v48.47h-6.667
		V42.979z M191.39,42.979h1.858v48.47h-1.858V42.979z M184.32,42.979h3.713v48.47h-3.713V42.979z M179.642,42.979h1.585v48.47
		h-1.585V42.979z M175.064,42.979h1.585v48.47h-1.585V42.979z M106.257,158.45c-37.617,0-68.112-30.495-68.112-68.112
		c0-2.458,0.133-4.884,0.387-7.274V52.512h4.355v12.806c1.176-2.976,2.557-5.847,4.123-8.6v-4.206h2.598
		c12.218-18.261,33.028-30.287,56.648-30.287c20.026,0,38.033,8.644,50.496,22.402v-1.649h6.667v10.312
		c1.051,1.62,2.036,3.287,2.95,4.997v-15.31h4.826v26.758c2.06,6.499,3.174,13.419,3.174,20.601
		C174.369,127.955,143.875,158.45,106.257,158.45z M106.196,25.337c-35.958,0-65.106,29.149-65.106,65.106
		c0,35.957,29.149,65.106,65.106,65.106c35.957,0,65.106-29.149,65.106-65.106C171.303,54.486,142.153,25.337,106.196,25.337z
		 M106.339,148.386c-16.117,0-30.712-6.509-41.308-17.039V60.395h72.951l10.755,14.438v55.383
		C138.065,141.403,123.022,148.386,106.339,148.386z M70.349,65.414c-1.191,0-2.157,0.966-2.157,2.157s0.966,2.157,2.157,2.157
		s2.157-0.966,2.157-2.157S71.541,65.414,70.349,65.414z M70.349,73.138c-1.191,0-2.157,0.966-2.157,2.157s0.966,2.157,2.157,2.157
		s2.157-0.966,2.157-2.157S71.541,73.138,70.349,73.138z M70.349,80.64c-1.191,0-2.157,0.966-2.157,2.157s0.966,2.158,2.157,2.158
		s2.157-0.966,2.157-2.158S71.541,80.64,70.349,80.64z M70.349,88.143c-1.191,0-2.157,0.966-2.157,2.157s0.966,2.157,2.157,2.157
		s2.157-0.966,2.157-2.157S71.541,88.143,70.349,88.143z M70.349,95.646c-1.191,0-2.157,0.966-2.157,2.158
		c0,1.191,0.966,2.157,2.157,2.157s2.157-0.966,2.157-2.157C72.506,96.611,71.541,95.646,70.349,95.646z M70.349,103.148
		c-1.191,0-2.157,0.966-2.157,2.157s0.966,2.157,2.157,2.157s2.157-0.966,2.157-2.157S71.541,103.148,70.349,103.148z
		 M70.349,110.651c-1.191,0-2.157,0.966-2.157,2.158s0.966,2.157,2.157,2.157s2.157-0.966,2.157-2.157
		S71.541,110.651,70.349,110.651z M70.349,118.154c-1.191,0-2.157,0.966-2.157,2.157s0.966,2.157,2.157,2.157
		s2.157-0.966,2.157-2.157S71.541,118.154,70.349,118.154z M70.349,125.657c-1.191,0-2.157,0.966-2.157,2.157
		s0.966,2.157,2.157,2.157s2.157-0.966,2.157-2.157S71.541,125.657,70.349,125.657z M81.541,75.752h-1.168v22.962h1.168V75.752z
		 M86.069,75.752h-2.383v22.962h2.383V75.752z M90.9,75.752h-2.383v22.962H90.9V75.752z M94.037,75.752h-1.168v22.962h1.168V75.752z
		 M97.173,75.752h-1.168v22.962h1.168V75.752z M103.269,75.752h-3.951v22.962h3.951V75.752z M110.326,75.752h-3.952v22.962h3.952
		V75.752z M114.136,75.752h-1.168v22.962h1.168V75.752z M118.902,75.752h-2.383v22.962h2.383V75.752z M142.375,129.971
		c1.191,0,2.158-0.966,2.158-2.157s-0.966-2.157-2.158-2.157s-2.157,0.966-2.157,2.157S141.184,129.971,142.375,129.971z
		 M142.375,122.468c1.191,0,2.158-0.966,2.158-2.157s-0.966-2.157-2.158-2.157s-2.157,0.966-2.157,2.157
		S141.184,122.468,142.375,122.468z M142.375,114.966c1.191,0,2.158-0.966,2.158-2.157s-0.966-2.158-2.158-2.158
		s-2.157,0.966-2.157,2.158S141.184,114.966,142.375,114.966z M142.375,107.463c1.191,0,2.158-0.966,2.158-2.157
		s-0.966-2.157-2.158-2.157s-2.157,0.966-2.157,2.157S141.184,107.463,142.375,107.463z M142.375,99.96
		c1.191,0,2.158-0.966,2.158-2.157c0-1.192-0.966-2.158-2.158-2.158s-2.157,0.966-2.157,2.158
		C140.218,98.995,141.184,99.96,142.375,99.96z M142.375,92.458c1.191,0,2.158-0.966,2.158-2.157s-0.966-2.157-2.158-2.157
		s-2.157,0.966-2.157,2.157S141.184,92.458,142.375,92.458z M142.375,84.955c1.191,0,2.158-0.966,2.158-2.158
		s-0.966-2.157-2.158-2.157s-2.157,0.966-2.157,2.157S141.184,84.955,142.375,84.955z M142.375,77.452
		c1.191,0,2.158-0.966,2.158-2.157s-0.966-2.157-2.158-2.157s-2.157,0.966-2.157,2.157S141.184,77.452,142.375,77.452z
		 M128.888,98.714h3.952V75.752h-3.952V98.714z M125.016,98.714h1.168V75.752h-1.168V98.714z M121.879,98.714h1.169V75.752h-1.169
		V98.714z M26.59,52.512h7.823v38.937H26.59V52.512z"/>
</g>
<g id="Layer_4">
	<path fill-rule="evenodd" clip-rule="evenodd" fill="#A7C9B5" d="M79.879,122.386h47.397v9.935H79.879V122.386z"/>
</g>
<g id="Layer_5">
	<path fill-rule="evenodd" clip-rule="evenodd" fill="#D59897" d="M79.27,61.596h26.39v7.88H79.27V61.596z"/>
</g>
<g id="Layer_6">
	<path fill-rule="evenodd" clip-rule="evenodd" fill="#939393" d="M155.796,134.019l-6.32,5.955l-28.105-29.112
		c-0.739,0.406-1.682,0.304-2.308-0.322c-0.759-0.759-0.759-1.991,0-2.75l0.276-0.276l-6.59-5.029
		c0.753-3.678-3.012-8.013-3.012-8.013l0.404-0.415l4.289,4.936l0.473-0.415l-4.324-4.97l0.303-0.312
		c3.077,3.175,7.792,3.544,7.792,3.544l4.441,6.897l0.054-0.054c0.759-0.76,1.991-0.76,2.75,0c0.51,0.51,0.669,1.232,0.494,1.882
		L155.796,134.019z"/>
</g>
</svg>
