<?xml version="1.0" encoding="utf-8"?>
<!-- Generator: Adobe Illustrator 15.0.0, SVG Export Plug-In . SVG Version: 6.00 Build 0)  -->
<svg version="1.2" baseProfile="tiny" id="Layer_1" xmlns="http://www.w3.org/2000/svg" xmlns:xlink="http://www.w3.org/1999/xlink"
	 x="0px" y="0px" width="170px" height="170px" viewBox="0 0 170 170" overflow="inherit" xml:space="preserve">
<path fill="#EFEFEF" d="M161.793,147.305c2.17,5.038-0.144,10.883-5.164,13.06c-5.019,2.186-10.846-0.139-13.019-5.176
	c-9.547-22.144-32.119-36.455-57.502-36.455c-25.973,0-48.681,14.3-57.842,36.434c-1.581,3.821-5.27,6.124-9.146,6.124
	c-1.271,0-2.554-0.244-3.797-0.762c-5.051-2.105-7.446-7.919-5.35-12.983c12.247-29.573,42.134-48.678,76.134-48.678
	C119.397,98.871,149.103,117.883,161.793,147.305z M17.288,30.335c0-11.333,9.167-20.531,20.47-20.531
	c11.298,0,20.465,9.196,20.465,20.531c0,11.343-9.167,20.537-20.465,20.537C26.455,50.872,17.288,41.678,17.288,30.335z
	 M110.1,30.335c0-11.333,9.175-20.531,20.475-20.531c11.298,0,20.471,9.196,20.471,20.531c0,11.343-9.167,20.537-20.471,20.537
	C119.275,50.872,110.1,41.678,110.1,30.335z"/>
<path fill-rule="evenodd" fill="#A5A4A4" d="M128.903,10.492c-6.946,0.096-12.204,4.954-15.085,9.303
	c-2.494,3.766-3.058,8.577-3.116,10.375c-0.284,8.814,4.986,14.255,4.986,14.255s-8.305-6.387-6.464-17.496
	c0.571-3.449,1.609-6.345,3.718-9.383c5.375-7.742,14.276-11.099,26-6.875c0,0,6.125,2.75,8.44,7.954
	C147.383,18.625,142.855,10.3,128.903,10.492z M36.403,10.492c-6.946,0.096-12.204,4.954-15.085,9.303
	c-2.494,3.766-3.058,8.577-3.116,10.375c-0.284,8.814,4.986,14.255,4.986,14.255s-8.305-6.387-6.464-17.496
	c0.571-3.449,1.609-6.345,3.718-9.383c5.375-7.742,14.276-11.099,26-6.875c0,0,6.125,2.75,8.44,7.954
	C54.883,18.625,50.355,10.3,36.403,10.492z M157.643,139.064c-16.225-19.521-31.658-37.186-73.532-38.734
	c-44.442-1.643-67.695,32.23-72.429,43.768c-3.253,7.926-1.597,11.624-0.556,13.109c-2.609-3.045-3.776-9.825-1.268-14.542
	c2.787-5.245,21.009-43.978,73.829-44.931C136.514,96.78,157.643,139.064,157.643,139.064z M54.665,18.29
	c-0.085-0.153-0.173-0.294-0.26-0.444C54.577,18.121,54.665,18.29,54.665,18.29z M137.616,143.524
	c3.5,4.312,4.937,7.217,5.864,9.177c1.908,4.034,3.503,6.657,3.503,6.657s-0.978,0.312-5.393-7.632
	c-5.126-9.224-11.815-16.135-11.815-16.135S133.982,139.046,137.616,143.524z"/>
</svg>
